<svg xmlns="http://www.w3.org/2000/svg" width="400" height="400" viewBox="0 0 400 400">
  <title>Artboard 3</title>
  <g>
    <path d="M65.98868,284.47109a7.09185,7.09185,0,0,1-6.14934-3.54556L15.15971,203.54639a7.08844,7.08844,0,0,1,0-7.09113l44.67963-77.37568a7.09226,7.09226,0,0,1,12.28482,7.09113L29.48739,200.00082,72.12417,273.8344a7.09047,7.09047,0,0,1-6.13549,10.63669Z"/>
    <path d="M334.018,284.47109a7.09047,7.09047,0,0,1-6.13549-10.63669l42.62985-73.83357-42.62985-73.83011a7.09227,7.09227,0,0,1,12.28482-7.09113L384.84,196.45526a7.08844,7.08844,0,0,1,0,7.09113l-44.67271,77.37914A7.09185,7.09185,0,0,1,334.018,284.47109Z"/>
    <g>
      <path d="M120.4156,177.30091h6.8903a3.09464,3.09464,0,0,1-.38087,1.35729,3.39986,3.39986,0,0,0-.38087,1.53041v44.92893h25.60838v5.1937H120.4156Z"/>
      <path d="M183.04464,177.30091H198.7019q9.359,0,13.48976,4.16881a14.93158,14.93158,0,0,1,4.12726,10.976,14.01246,14.01246,0,0,1-.76867,4.54968,16.2271,16.2271,0,0,1-2.1675,4.21728,14.839,14.839,0,0,1-3.40706,3.40014,12.51311,12.51311,0,0,1-4.46658,2.04285l12.25712,23.65555h-6.641L199.38054,206.9119H189.1732v23.39933h-6.12856Zm6.12856,5.61612v18.71808H199.429q5.67152,0,8.21989-2.51375a8.9456,8.9456,0,0,0,2.54145-6.67563,10.07349,10.07349,0,0,0-.67864-3.74639,9.0967,9.0967,0,0,0-1.90435-2.97772,8.79206,8.79206,0,0,0-3.26164-2.04285,13.972,13.972,0,0,0-4.9167-.76174Z"/>
      <path d="M246.013,230.31123V177.30091h5.78924l22.29134,39.31281V177.21089h6.30168a2.55909,2.55909,0,0,1-.29777,1.108,2.61328,2.61328,0,0,0-.29777,1.19109v50.80127h-4.68125l-23.39933-41.695v41.695Z"/>
    </g>
  </g>
</svg>