<svg xmlns="http://www.w3.org/2000/svg" width="64" height="64" viewBox="0 0 64 64">
  <defs>
    <style>
      .cls-1 {
        fill: #4dd5ff;
      }
    </style>
  </defs>
  <title>Artboard 2</title>
  <g id="Layer_4" data-name="Layer 4">
    <rect class="cls-1" y="0.04393" width="64" height="64"/>
    <g>
      <path d="M8.548,58.1863a2.71193,2.71193,0,0,1-2.71186-2.71186V20.32867a2.71186,2.71186,0,1,1,5.42373,0V55.47444A2.71193,2.71193,0,0,1,8.548,58.1863Z"/>
      <path d="M29.92082,34.75632a2.71406,2.71406,0,0,1-2.67828-3.15816L29.19508,19.8828a2.7119,2.7119,0,1,1,5.35.89174L32.59254,32.4899A2.71264,2.71264,0,0,1,29.92082,34.75632Z"/>
      <path d="M26.01573,58.18672a2.71406,2.71406,0,0,1-2.67828-3.15816L25.29,43.31342a2.7119,2.7119,0,0,1,5.35.89174L28.68745,55.9203A2.71264,2.71264,0,0,1,26.01573,58.18672Z"/>
      <path d="M20.2633,58.1863a2.71193,2.71193,0,0,1-2.71186-2.71186V20.32867a2.71186,2.71186,0,1,1,5.42373,0V55.47444A2.71193,2.71193,0,0,1,20.2633,58.1863Z"/>
      <rect x="8.65652" y="35.18969" width="11.71525" height="5.42373"/>
      <path d="M58.02347,54.70982,52.40758,37.89287l5.47044-16.721a2.71186,2.71186,0,0,0-5.15487-1.68644l-3.21939,9.84031-3.35053-9.86891a2.71186,2.71186,0,0,0-5.13581,1.74364l5.67278,16.709L41.12114,54.61691a2.71182,2.71182,0,1,0,5.14534,1.715l3.28729-9.86181L52.879,56.42783a2.71189,2.71189,0,1,0,5.14449-1.718Z"/>
      <path d="M37.72442,58.18672A2.71246,2.71246,0,0,1,35.0527,55.9203L29.19508,20.77454a2.7119,2.7119,0,1,1,5.35-.89174L40.4027,55.02857a2.71406,2.71406,0,0,1-2.67828,3.15816Z"/>
    </g>
  </g>
</svg>
